<svg width="200" height="200" viewBox="0 0 200 200" fill="none" xmlns="http://www.w3.org/2000/svg">
<ellipse cx="72" cy="81.9998" rx="35" ry="33.8333" fill="#139062"/>
<path d="M123.5 23L107 44.5C124.345 68.5845 102.149 96.8904 72.5 84.5L63 98H123.5C142.5 60.5 144.5 47 123.5 23Z" fill="#38B088"/>
<path fill-rule="evenodd" clip-rule="evenodd" d="M144.501 57.6949C131.066 69.9259 122.564 77.5559 115.616 83.6189C111.28 87.4039 105.955 92.1879 103.785 94.2499L99.8379 97.9999L125.669 97.9929L151.501 97.9859L153.744 94.6909C160.279 85.0919 160.807 71.0439 155.04 60.2249C153.049 56.4889 151.078 54.0109 150.112 54.0269C149.226 54.0419 146.701 55.6929 144.501 57.6949Z" fill="#114539"/>
<path d="M37.2509 97.1841C38.7639 97.0101 39.9959 96.7851 39.9899 96.6841L153.837 97.5031C154.11 97.7761 155.384 98.0001 156.668 98.0001C158.704 98.0001 159.001 98.4851 159.001 101.812C159.001 107.333 155.407 120.21 151.802 127.602C145.042 141.467 131.124 153.964 116.859 158.978C108.121 162.05 92.0679 162.802 82.6139 160.582C65.8919 156.656 49.9089 143.77 42.1619 127.966C37.7179 118.901 35.3049 110.545 34.8089 102.5C34.5129 97.7011 34.6109 97.4871 37.2509 97.1841Z" fill="#18AB75"/>
<path d="M74.4452 138.708C69.4682 134.376 64.2792 124.294 63.3982 117.25L62.7422 112H65.7422C68.5712 112 68.7792 112.274 69.3802 116.81C70.6552 126.422 79.9392 137.5 88.7752 139.954C93.5272 141.274 100.464 141.277 105.203 139.96C114.102 137.489 123.366 126.145 124.718 116.065C125.212 112.383 125.534 112 128.132 112C131.394 112 131.435 112.226 129.699 120.5C128.167 127.802 122.506 136.718 116.672 141.014C110.668 145.437 100.283 148.391 93.6522 147.562C87.1422 146.749 79.7822 143.356 74.4452 138.708Z" fill="#F9FFFF"/>
<ellipse cx="67.5" cy="164" rx="17.5" ry="17" fill="black"/>
<circle cx="68" cy="164" r="8" fill="#D9D9D9"/>
<ellipse cx="128.5" cy="165" rx="17.5" ry="17" fill="black"/>
<circle cx="129" cy="165" r="8" fill="#D9D9D9"/>
</svg>
